<mxfile host="Electron" modified="2023-10-16T10:59:20.395Z" agent="Mozilla/5.0 (X11; Linux x86_64) AppleWebKit/537.36 (KHTML, like Gecko) draw.io/21.5.0 Chrome/112.0.5615.204 Electron/24.5.1 Safari/537.36" etag="JpmJDeGGe6KqEX4wVPJA" version="21.5.0" type="device">
  <diagram name="Page-1" id="W7nGIt9F4BFxmz5Jp1oG">
    <mxGraphModel dx="1009" dy="631" grid="1" gridSize="10" guides="1" tooltips="1" connect="1" arrows="1" fold="1" page="1" pageScale="1" pageWidth="850" pageHeight="1100" math="1" shadow="0">
      <root>
        <mxCell id="0" />
        <mxCell id="1" parent="0" />
        <mxCell id="Tm_LXnfvuMpQnWTgArYY-1" value="" style="rounded=1;whiteSpace=wrap;html=1;fillColor=none;arcSize=3;" parent="1" vertex="1">
          <mxGeometry x="30" y="30" width="760" height="1050" as="geometry" />
        </mxCell>
        <mxCell id="Tm_LXnfvuMpQnWTgArYY-2" style="edgeStyle=orthogonalEdgeStyle;rounded=0;orthogonalLoop=1;jettySize=auto;html=1;exitX=0.5;exitY=1;exitDx=0;exitDy=0;entryX=0.5;entryY=0;entryDx=0;entryDy=0;" parent="1" source="Tm_LXnfvuMpQnWTgArYY-3" target="Tm_LXnfvuMpQnWTgArYY-8" edge="1">
          <mxGeometry relative="1" as="geometry" />
        </mxCell>
        <mxCell id="Tm_LXnfvuMpQnWTgArYY-3" value="&lt;font style=&quot;font-size: 18px;&quot;&gt;Gather data&lt;/font&gt;" style="rounded=1;whiteSpace=wrap;html=1;arcSize=25;" parent="1" vertex="1">
          <mxGeometry x="200" y="50" width="200" height="40" as="geometry" />
        </mxCell>
        <mxCell id="Tm_LXnfvuMpQnWTgArYY-4" style="edgeStyle=orthogonalEdgeStyle;rounded=0;orthogonalLoop=1;jettySize=auto;html=1;exitX=1;exitY=0.5;exitDx=0;exitDy=0;entryX=0;entryY=0.5;entryDx=0;entryDy=0;" parent="1" source="Tm_LXnfvuMpQnWTgArYY-8" target="Tm_LXnfvuMpQnWTgArYY-10" edge="1">
          <mxGeometry relative="1" as="geometry">
            <Array as="points">
              <mxPoint x="390" y="160" />
              <mxPoint x="390" y="160" />
            </Array>
          </mxGeometry>
        </mxCell>
        <mxCell id="Tm_LXnfvuMpQnWTgArYY-5" value="&lt;font style=&quot;font-size: 18px;&quot;&gt;No&lt;/font&gt;" style="edgeLabel;html=1;align=center;verticalAlign=middle;resizable=0;points=[];" parent="Tm_LXnfvuMpQnWTgArYY-4" vertex="1" connectable="0">
          <mxGeometry x="-0.2431" y="1" relative="1" as="geometry">
            <mxPoint x="15" y="1" as="offset" />
          </mxGeometry>
        </mxCell>
        <mxCell id="bsZSGpr0dw26bMPEp3Ck-3" style="edgeStyle=orthogonalEdgeStyle;rounded=0;orthogonalLoop=1;jettySize=auto;html=1;exitX=0.5;exitY=1;exitDx=0;exitDy=0;entryX=0.5;entryY=0;entryDx=0;entryDy=0;" parent="1" source="Tm_LXnfvuMpQnWTgArYY-8" target="Tm_LXnfvuMpQnWTgArYY-12" edge="1">
          <mxGeometry relative="1" as="geometry">
            <mxPoint x="300" y="240" as="targetPoint" />
          </mxGeometry>
        </mxCell>
        <mxCell id="cHp1jXucGZT_Be92Mrpm-8" value="&lt;font style=&quot;font-size: 18px;&quot;&gt;Yes&lt;/font&gt;" style="edgeLabel;html=1;align=center;verticalAlign=middle;resizable=0;points=[];" vertex="1" connectable="0" parent="bsZSGpr0dw26bMPEp3Ck-3">
          <mxGeometry x="-0.1943" relative="1" as="geometry">
            <mxPoint as="offset" />
          </mxGeometry>
        </mxCell>
        <mxCell id="Tm_LXnfvuMpQnWTgArYY-8" value="&lt;font style=&quot;font-size: 18px;&quot;&gt;Is it stationary?&lt;/font&gt;" style="rounded=1;whiteSpace=wrap;html=1;arcSize=27;" parent="1" vertex="1">
          <mxGeometry x="200" y="130" width="200" height="60" as="geometry" />
        </mxCell>
        <mxCell id="Tm_LXnfvuMpQnWTgArYY-9" style="edgeStyle=orthogonalEdgeStyle;rounded=0;orthogonalLoop=1;jettySize=auto;html=1;exitX=0.5;exitY=1;exitDx=0;exitDy=0;entryX=0.75;entryY=1;entryDx=0;entryDy=0;" parent="1" source="Tm_LXnfvuMpQnWTgArYY-10" target="Tm_LXnfvuMpQnWTgArYY-8" edge="1">
          <mxGeometry relative="1" as="geometry" />
        </mxCell>
        <mxCell id="Tm_LXnfvuMpQnWTgArYY-10" value="&lt;font style=&quot;font-size: 18px;&quot;&gt;Apply transformations&lt;/font&gt;" style="rounded=1;whiteSpace=wrap;html=1;arcSize=27;" parent="1" vertex="1">
          <mxGeometry x="460" y="130" width="140" height="60" as="geometry" />
        </mxCell>
        <mxCell id="Tm_LXnfvuMpQnWTgArYY-11" style="edgeStyle=orthogonalEdgeStyle;rounded=0;orthogonalLoop=1;jettySize=auto;html=1;exitX=0.5;exitY=1;exitDx=0;exitDy=0;entryX=0.5;entryY=0;entryDx=0;entryDy=0;" parent="1" source="Tm_LXnfvuMpQnWTgArYY-12" target="Tm_LXnfvuMpQnWTgArYY-14" edge="1">
          <mxGeometry relative="1" as="geometry" />
        </mxCell>
        <mxCell id="Tm_LXnfvuMpQnWTgArYY-12" value="&lt;font style=&quot;font-size: 18px;&quot;&gt;List values &lt;br&gt;for \(p\)&lt;br&gt;&lt;/font&gt;" style="rounded=1;whiteSpace=wrap;html=1;arcSize=27;" parent="1" vertex="1">
          <mxGeometry x="200" y="290" width="200" height="60" as="geometry" />
        </mxCell>
        <mxCell id="Tm_LXnfvuMpQnWTgArYY-13" style="edgeStyle=orthogonalEdgeStyle;rounded=0;orthogonalLoop=1;jettySize=auto;html=1;exitX=0.5;exitY=1;exitDx=0;exitDy=0;entryX=0.5;entryY=0;entryDx=0;entryDy=0;" parent="1" source="Tm_LXnfvuMpQnWTgArYY-14" target="Tm_LXnfvuMpQnWTgArYY-16" edge="1">
          <mxGeometry relative="1" as="geometry" />
        </mxCell>
        <mxCell id="Tm_LXnfvuMpQnWTgArYY-14" value="&lt;span style=&quot;font-size: 18px;&quot;&gt;Fit every &lt;br&gt;\(\text{VAR}(p)\) model&lt;/span&gt;" style="rounded=1;whiteSpace=wrap;html=1;arcSize=27;fillColor=#f8cecc;strokeColor=#b85450;" parent="1" vertex="1">
          <mxGeometry x="200" y="390" width="200" height="60" as="geometry" />
        </mxCell>
        <mxCell id="cHp1jXucGZT_Be92Mrpm-7" style="edgeStyle=orthogonalEdgeStyle;rounded=0;orthogonalLoop=1;jettySize=auto;html=1;exitX=0.5;exitY=1;exitDx=0;exitDy=0;entryX=0.5;entryY=0;entryDx=0;entryDy=0;" edge="1" parent="1" source="Tm_LXnfvuMpQnWTgArYY-16" target="cHp1jXucGZT_Be92Mrpm-2">
          <mxGeometry relative="1" as="geometry" />
        </mxCell>
        <mxCell id="Tm_LXnfvuMpQnWTgArYY-16" value="&lt;span style=&quot;font-size: 18px;&quot;&gt;Select model with&lt;br&gt;&amp;nbsp;lowest AIC&lt;/span&gt;" style="rounded=1;whiteSpace=wrap;html=1;arcSize=27;" parent="1" vertex="1">
          <mxGeometry x="199.47" y="490" width="200" height="60" as="geometry" />
        </mxCell>
        <mxCell id="Tm_LXnfvuMpQnWTgArYY-17" style="edgeStyle=orthogonalEdgeStyle;rounded=0;orthogonalLoop=1;jettySize=auto;html=1;exitX=0.5;exitY=1;exitDx=0;exitDy=0;entryX=0.5;entryY=0;entryDx=0;entryDy=0;" parent="1" source="Tm_LXnfvuMpQnWTgArYY-19" target="Tm_LXnfvuMpQnWTgArYY-23" edge="1">
          <mxGeometry relative="1" as="geometry" />
        </mxCell>
        <mxCell id="Tm_LXnfvuMpQnWTgArYY-18" style="edgeStyle=orthogonalEdgeStyle;rounded=0;orthogonalLoop=1;jettySize=auto;html=1;exitX=0.5;exitY=1;exitDx=0;exitDy=0;entryX=0.5;entryY=0;entryDx=0;entryDy=0;" parent="1" source="Tm_LXnfvuMpQnWTgArYY-19" target="Tm_LXnfvuMpQnWTgArYY-28" edge="1">
          <mxGeometry relative="1" as="geometry" />
        </mxCell>
        <mxCell id="Tm_LXnfvuMpQnWTgArYY-19" value="&lt;span style=&quot;font-size: 18px;&quot;&gt;Residual analysis&lt;/span&gt;" style="rounded=1;whiteSpace=wrap;html=1;arcSize=27;" parent="1" vertex="1">
          <mxGeometry x="200.03" y="730" width="200" height="60" as="geometry" />
        </mxCell>
        <mxCell id="Tm_LXnfvuMpQnWTgArYY-20" style="edgeStyle=orthogonalEdgeStyle;rounded=0;orthogonalLoop=1;jettySize=auto;html=1;exitX=0;exitY=0.5;exitDx=0;exitDy=0;entryX=0;entryY=0.5;entryDx=0;entryDy=0;" parent="1" source="Tm_LXnfvuMpQnWTgArYY-23" target="Tm_LXnfvuMpQnWTgArYY-12" edge="1">
          <mxGeometry relative="1" as="geometry" />
        </mxCell>
        <mxCell id="Tm_LXnfvuMpQnWTgArYY-21" value="&lt;font style=&quot;font-size: 18px;&quot;&gt;No&lt;/font&gt;" style="edgeLabel;html=1;align=center;verticalAlign=middle;resizable=0;points=[];" parent="Tm_LXnfvuMpQnWTgArYY-20" vertex="1" connectable="0">
          <mxGeometry x="-0.2578" y="-1" relative="1" as="geometry">
            <mxPoint y="170" as="offset" />
          </mxGeometry>
        </mxCell>
        <mxCell id="Tm_LXnfvuMpQnWTgArYY-22" style="edgeStyle=orthogonalEdgeStyle;rounded=0;orthogonalLoop=1;jettySize=auto;html=1;exitX=0.5;exitY=1;exitDx=0;exitDy=0;entryX=0.5;entryY=0;entryDx=0;entryDy=0;" parent="1" source="Tm_LXnfvuMpQnWTgArYY-23" target="Tm_LXnfvuMpQnWTgArYY-29" edge="1">
          <mxGeometry relative="1" as="geometry">
            <Array as="points">
              <mxPoint x="179.5" y="965.31" />
              <mxPoint x="299.5" y="965.31" />
            </Array>
          </mxGeometry>
        </mxCell>
        <mxCell id="Tm_LXnfvuMpQnWTgArYY-23" value="&lt;span style=&quot;font-size: 18px;&quot;&gt;Q-Q plot shows a straight line?&lt;/span&gt;" style="rounded=1;whiteSpace=wrap;html=1;arcSize=27;" parent="1" vertex="1">
          <mxGeometry x="79.5" y="885.31" width="200" height="60" as="geometry" />
        </mxCell>
        <mxCell id="Tm_LXnfvuMpQnWTgArYY-24" style="edgeStyle=orthogonalEdgeStyle;rounded=0;orthogonalLoop=1;jettySize=auto;html=1;exitX=1;exitY=0.5;exitDx=0;exitDy=0;entryX=1;entryY=0.5;entryDx=0;entryDy=0;" parent="1" source="Tm_LXnfvuMpQnWTgArYY-28" target="Tm_LXnfvuMpQnWTgArYY-12" edge="1">
          <mxGeometry relative="1" as="geometry" />
        </mxCell>
        <mxCell id="Tm_LXnfvuMpQnWTgArYY-25" value="&lt;font style=&quot;font-size: 18px;&quot;&gt;No&lt;/font&gt;" style="edgeLabel;html=1;align=center;verticalAlign=middle;resizable=0;points=[];" parent="Tm_LXnfvuMpQnWTgArYY-24" vertex="1" connectable="0">
          <mxGeometry x="-0.2387" y="2" relative="1" as="geometry">
            <mxPoint x="2" y="177" as="offset" />
          </mxGeometry>
        </mxCell>
        <mxCell id="Tm_LXnfvuMpQnWTgArYY-26" style="edgeStyle=orthogonalEdgeStyle;rounded=0;orthogonalLoop=1;jettySize=auto;html=1;exitX=0.5;exitY=1;exitDx=0;exitDy=0;entryX=0.5;entryY=0;entryDx=0;entryDy=0;" parent="1" source="Tm_LXnfvuMpQnWTgArYY-28" target="Tm_LXnfvuMpQnWTgArYY-29" edge="1">
          <mxGeometry relative="1" as="geometry">
            <mxPoint x="299.5" y="995.31" as="targetPoint" />
            <Array as="points">
              <mxPoint x="419.5" y="965.31" />
              <mxPoint x="299.5" y="965.31" />
            </Array>
          </mxGeometry>
        </mxCell>
        <mxCell id="Tm_LXnfvuMpQnWTgArYY-27" value="&lt;font style=&quot;font-size: 18px;&quot;&gt;Yes&lt;/font&gt;" style="edgeLabel;html=1;align=center;verticalAlign=middle;resizable=0;points=[];" parent="Tm_LXnfvuMpQnWTgArYY-26" vertex="1" connectable="0">
          <mxGeometry x="0.6463" y="1" relative="1" as="geometry">
            <mxPoint x="-1" as="offset" />
          </mxGeometry>
        </mxCell>
        <mxCell id="Tm_LXnfvuMpQnWTgArYY-28" value="&lt;span style=&quot;font-size: 18px;&quot;&gt;Uncorrelated &lt;br&gt;residuals?&lt;/span&gt;" style="rounded=1;whiteSpace=wrap;html=1;arcSize=27;" parent="1" vertex="1">
          <mxGeometry x="319.5" y="885.31" width="200" height="60" as="geometry" />
        </mxCell>
        <mxCell id="Tm_LXnfvuMpQnWTgArYY-29" value="&lt;span style=&quot;font-size: 18px;&quot;&gt;Ready for forecast&lt;/span&gt;" style="text;html=1;strokeColor=none;fillColor=none;align=center;verticalAlign=middle;whiteSpace=wrap;rounded=0;" parent="1" vertex="1">
          <mxGeometry x="219.5" y="1025.31" width="160" height="40" as="geometry" />
        </mxCell>
        <mxCell id="bsZSGpr0dw26bMPEp3Ck-5" style="edgeStyle=orthogonalEdgeStyle;rounded=0;orthogonalLoop=1;jettySize=auto;html=1;exitX=0.5;exitY=1;exitDx=0;exitDy=0;entryX=0.5;entryY=0;entryDx=0;entryDy=0;" parent="1" source="Tm_LXnfvuMpQnWTgArYY-30" edge="1">
          <mxGeometry relative="1" as="geometry">
            <mxPoint x="299.94000000000005" y="480" as="targetPoint" />
          </mxGeometry>
        </mxCell>
        <mxCell id="bsZSGpr0dw26bMPEp3Ck-4" style="edgeStyle=orthogonalEdgeStyle;rounded=0;orthogonalLoop=1;jettySize=auto;html=1;exitX=0.5;exitY=1;exitDx=0;exitDy=0;entryX=0.5;entryY=0;entryDx=0;entryDy=0;" parent="1" source="bsZSGpr0dw26bMPEp3Ck-2" edge="1">
          <mxGeometry relative="1" as="geometry">
            <mxPoint x="300" y="360" as="targetPoint" />
          </mxGeometry>
        </mxCell>
        <mxCell id="cHp1jXucGZT_Be92Mrpm-3" style="edgeStyle=orthogonalEdgeStyle;rounded=0;orthogonalLoop=1;jettySize=auto;html=1;exitX=1;exitY=0.5;exitDx=0;exitDy=0;jumpStyle=arc;jumpSize=11;" edge="1" parent="1" source="cHp1jXucGZT_Be92Mrpm-2">
          <mxGeometry relative="1" as="geometry">
            <mxPoint x="600" y="620" as="targetPoint" />
            <Array as="points">
              <mxPoint x="480" y="620" />
              <mxPoint x="480" y="620" />
            </Array>
          </mxGeometry>
        </mxCell>
        <mxCell id="cHp1jXucGZT_Be92Mrpm-10" value="&lt;font style=&quot;font-size: 18px;&quot;&gt;No&lt;/font&gt;" style="edgeLabel;html=1;align=center;verticalAlign=middle;resizable=0;points=[];" vertex="1" connectable="0" parent="cHp1jXucGZT_Be92Mrpm-3">
          <mxGeometry x="-0.3419" y="1" relative="1" as="geometry">
            <mxPoint as="offset" />
          </mxGeometry>
        </mxCell>
        <mxCell id="cHp1jXucGZT_Be92Mrpm-6" style="edgeStyle=orthogonalEdgeStyle;rounded=0;orthogonalLoop=1;jettySize=auto;html=1;exitX=0.5;exitY=1;exitDx=0;exitDy=0;entryX=0.5;entryY=0;entryDx=0;entryDy=0;" edge="1" parent="1" source="cHp1jXucGZT_Be92Mrpm-2" target="Tm_LXnfvuMpQnWTgArYY-19">
          <mxGeometry relative="1" as="geometry">
            <Array as="points">
              <mxPoint x="300" y="690" />
              <mxPoint x="300" y="690" />
            </Array>
          </mxGeometry>
        </mxCell>
        <mxCell id="cHp1jXucGZT_Be92Mrpm-9" value="&lt;font style=&quot;font-size: 18px;&quot;&gt;Yes&lt;/font&gt;" style="edgeLabel;html=1;align=center;verticalAlign=middle;resizable=0;points=[];" vertex="1" connectable="0" parent="cHp1jXucGZT_Be92Mrpm-6">
          <mxGeometry x="-0.1794" y="1" relative="1" as="geometry">
            <mxPoint as="offset" />
          </mxGeometry>
        </mxCell>
        <mxCell id="cHp1jXucGZT_Be92Mrpm-2" value="&lt;span style=&quot;font-size: 18px;&quot;&gt;Granger causality test passed?&lt;/span&gt;" style="rounded=1;whiteSpace=wrap;html=1;arcSize=27;fillColor=#f8cecc;strokeColor=#b85450;" vertex="1" parent="1">
          <mxGeometry x="200" y="590" width="200" height="60" as="geometry" />
        </mxCell>
        <mxCell id="cHp1jXucGZT_Be92Mrpm-5" value="&lt;font style=&quot;font-size: 18px;&quot;&gt;\(\text{VAR}(p)\) model is invalid&lt;/font&gt;" style="text;html=1;strokeColor=none;fillColor=none;align=center;verticalAlign=middle;whiteSpace=wrap;rounded=0;" vertex="1" parent="1">
          <mxGeometry x="600" y="590" width="150" height="60" as="geometry" />
        </mxCell>
      </root>
    </mxGraphModel>
  </diagram>
</mxfile>
